<svg xmlns="http://www.w3.org/2000/svg" width="316" height="319" fill="none" xmlns:v="https://vecta.io/nano"><g clip-path="url(#A)"><g opacity=".37" fill="gray"><path opacity=".37" d="M22.94 98.34c-.06 0-.118 0-.118.06-.6.236-1.18.236-1.77.06-1.297-.47-2.36-1.237-3.185-2.357L8.846 83.963c-1.298-1.768-1.887-3.77-1.77-6V76.54c-.413.06-.65-.177-.885-.47-.118-.236-.295-.412-.413-.59-.295-.412-.236-1.002.177-1.296l2.182-1.65c.413-.295 1.003-.236 1.297.177.177.177.295.412.413.59.236.295.354.59.177 1.002l1.357.353c2.182.53 3.95 1.71 5.308 3.476l8.906 11.96c.65.825 1.062 1.768 1.297 2.828.236 1.002.236 1.944-.472 2.77l-.53.353c-.354.118-.708.118-1.062-.06-.295.53-.708.825-1.298.884.118.412 0 .766-.236 1.12 0 .118-.177.236-.354.354zm-6.547-19.915c-.354.236-.53.412-.6.766-.177 1.002-1.12 1.65-2.123 1.59-.6-.06-1.18.353-1.298.943-.177 1.002-1.062 1.65-2.123 1.532-.354-.06-.65.06-.944.353l3.716 5.008c.472-.354.944-.47 1.533-.47.65 0 1.12-.354 1.298-1.06.236-1.002.944-1.532 2.005-1.473.708.06 1.18-.354 1.415-1.002.06-.236.177-.53.354-.766.118-.177.295-.353.472-.47a180.56 180.56 0 0 1-3.716-4.949zm8.257 11.136c-.354.177-.53.412-.6.766a1.91 1.91 0 0 1-2.123 1.591c-.6-.06-1.18.354-1.297.943-.177 1.002-1.062 1.65-2.123 1.532-.354-.06-.65.06-.944.354l.885 1.178c.708.884 1.65 1.59 2.772 1.944.53.177 1.003.177 1.474-.118s.53-.53.236-1.002c-.177-.295-.236-.59-.118-.884.177-.53.6-.825 1.062-1.002.472-.118.826.06 1.18.412.236.295.53.295.885.06.472-.354.65-.884.65-1.473-.06-1.65-.885-3.005-1.946-4.3zM8.197 81.547c.236-.06.472-.177.708-.236s.413 0 .65 0c.6 0 1.062-.353 1.24-1.002.295-1.12.944-1.532 2.064-1.532.6 0 1.12-.295 1.298-.884.118-.413.295-.825.65-1.178-.06-.06-.118-.118-.177-.118-.885-.648-1.887-1.12-2.95-1.414-.6-.118-1.12-.353-1.7-.47-.118-.06-.295 0-.354.06l-1.65 1.237c-.118.06-.177.236-.177.354 0 .59-.06 1.178 0 1.768 0 .707.06 1.355.177 2.062-.06.47.118.943.236 1.355zm8.02 11.313c.413-.353.885-.47 1.416-.47.708.06 1.18-.353 1.415-1.06.236-1.002 1.003-1.532 2.005-1.473.708.06 1.24-.353 1.416-1.06.118-.412.295-.825.708-1.06.06-.06.118-.06.118-.118l-.708-.943c-.354.236-.53.412-.65.825-.236 1.002-.944 1.532-2.005 1.473-.708 0-1.18.353-1.415 1.06-.06.236-.118.47-.236.648-.413.59-.944.884-1.7.825-.413 0-.767.06-1.062.353.236.413.472.707.708 1.002zm-2.064-2.77c.472-.412.944-.47 1.533-.47.6.06 1.062-.354 1.238-.943.295-1.12.944-1.59 2.123-1.532.6 0 1.12-.295 1.24-.825.177-.59.354-1.06.885-1.414-.236-.353-.472-.648-.708-.943-.354.177-.53.412-.65.825-.295 1.002-.944 1.532-2.005 1.473-.708 0-1.18.353-1.416 1.002-.06.236-.177.53-.354.707-.413.53-.944.766-1.65.766-.413 0-.767.06-1.062.353a6.17 6.17 0 0 1 .826 1.002zm3.126 4.183c.472-.353.944-.47 1.533-.47.6.06 1.12-.353 1.24-.943.236-1.002 1.12-1.65 2.123-1.532.6.06 1.12-.295 1.238-.825.177-.59.413-1.06.885-1.414-.236-.353-.472-.648-.708-.943-.354.118-.53.412-.65.825-.295 1.06-.944 1.532-2.005 1.532-.708 0-1.18.354-1.357 1.002-.06.236-.177.53-.295.707-.413.59-1.003.825-1.7.766-.413 0-.708.06-1.003.353.236.354.472.648.708.943zm-2.064-2.828c.472-.354 1.003-.47 1.533-.47s1.062-.353 1.24-.884c.06-.118.06-.236.118-.412.295-.825 1.003-1.296 1.887-1.237.65 0 1.18-.295 1.357-.884.177-.53.413-1.06.885-1.355-.236-.354-.472-.648-.708-.943-.354.177-.53.412-.6.766a1.91 1.91 0 0 1-2.123 1.591c-.6-.06-1.18.353-1.297.943-.177.943-1.062 1.65-2.123 1.532-.354-.06-.65.06-.944.354a21.26 21.26 0 0 0 .767 1.002zM15.156 77c-.177.295-.354.53-.413.766-.295 1.12-.944 1.59-2.064 1.532-.65 0-1.12.353-1.297 1.002-.295 1.06-.944 1.532-2.064 1.532-.295 0-.53.118-.885.177l.6 1.12c.708-.413.708-.413 1.592-.413.6 0 1.062-.353 1.24-.943.236-1.002 1.12-1.65 2.123-1.532.6.06 1.062-.295 1.24-.825.177-.59.354-1.06.885-1.414L15.156 77zm-6.782-2.062l1.18-.884c.177-.118.177-.236.06-.353-.177-.177-.295-.412-.472-.648s-.413-.295-.65-.118l-2.064 1.532c-.236.177-.236.413-.118.648s.295.412.472.648c.118.177.236.177.413.06l1.18-.884zM24.416 95.51c-.354-.118-.826.118-1.003.47-.118.177-.06.295.177.354.413 0 .826-.354.826-.825z"/><path opacity=".37" d="M18.164 81.3l1.062 1.473c.118.177.236.354 0 .47-.177.118-.354 0-.472-.177l-2.182-2.946c-.118-.177-.177-.353 0-.47s.354-.06.472.118c.354.6.708 1.06 1.12 1.532zm7.666 10.372l.354 1.002.118 1.237c0 .177-.06.295-.295.295-.177 0-.295-.118-.295-.295 0-.648-.118-1.296-.413-1.886-.06-.118.06-.295.118-.353.06-.118.236 0 .413 0zM13.977 76.775c0 .06 0 .177-.06.295a.45.45 0 0 1-.295.118c-.06 0-.118-.06-.177-.118l-1.887-.825c-.06 0-.177 0-.177-.06-.06-.118-.177-.236-.118-.295.06-.118.177-.236.295-.177a6.96 6.96 0 0 1 2.359 1.002l.06.06z"/></g><g opacity=".37" fill="gray"><path opacity=".37" d="M285.804 255.483c-.06 0-.06-.06-.118-.06-.6-.236-1.003-.648-1.298-1.18-.6-1.237-.826-2.533-.6-3.888l2.065-14.966a8.86 8.86 0 0 1 2.948-5.539l1.003-1.002c-.295-.235-.354-.6-.295-.942.06-.236.06-.472.118-.766.118-.53.53-.884 1.062-.825l2.713.353c.53.06.825.53.825 1.06 0 .235-.06.47-.118.707 0 .353-.118.707-.53.884l.707 1.237a9.1 9.1 0 0 1 1.357 6.187l-2.064 14.8a6.35 6.35 0 0 1-1.062 2.887c-.53.884-1.18 1.532-2.3 1.65-.236 0-.413-.06-.65-.06-.354-.177-.6-.412-.708-.825-.6.177-1.12.118-1.592-.236-.177.354-.53.53-.944.65a1.16 1.16 0 0 0-.53-.118zm9.26-18.796c-.413-.118-.708-.06-.944.118-.825.6-1.946.412-2.595-.354-.412-.47-1.06-.53-1.592-.236a1.86 1.86 0 0 1-2.595-.353 1.06 1.06 0 0 0-.885-.412l-.825 6.186c.6.06 1.002.354 1.415.766.413.472 1.062.472 1.652.118.884-.53 1.77-.412 2.477.354.47.53 1.12.6 1.7.235a4.09 4.09 0 0 1 .767-.294c.236-.06.47 0 .707 0l.708-6.128zm-1.887 13.67a1.06 1.06 0 0 0-.944.117c-.826.6-1.946.413-2.595-.353-.413-.47-1.06-.6-1.592-.236-.826.6-1.946.413-2.595-.353a.93.93 0 0 0-.944-.354c-.06.472-.177.943-.177 1.414-.118 1.18.06 2.298.6 3.36a1.74 1.74 0 0 0 1.18.943c.53.117.707 0 .884-.53.06-.294.236-.53.53-.707.472-.294 1.003-.177 1.474.06a.97.97 0 0 1 .53 1.06c0 .412.177.6.6.648.6.06 1.12-.177 1.533-.6 1.062-1.238 1.416-2.77 1.534-4.478zm-6.134-17.205c.236.117.472.176.65.353a1.82 1.82 0 0 1 .472.47c.413.413 1.06.472 1.592.177 1.003-.6 1.77-.47 2.536.354.413.412 1.003.53 1.534.235.412-.235.825-.412 1.297-.412v-.236c-.177-1.12-.6-2.12-1.12-3.064l-.884-1.532c-.06-.117-.177-.176-.295-.235l-2.064-.295c-.118 0-.295.06-.354.118l-1.24 1.237-1.356 1.6c-.354.413-.53.825-.767 1.238zm-2.182 13.728c.53.06 1.003.295 1.356.648.472.53 1.12.6 1.7.236.884-.53 1.77-.412 2.477.354.472.53 1.12.6 1.77.235a1.78 1.78 0 0 1 1.239-.294h.177l.177-1.12c-.413-.118-.65-.06-1.062.177-.885.53-1.77.412-2.477-.354-.472-.53-1.12-.6-1.7-.235a2.18 2.18 0 0 1-.649.294c-.708.177-1.298-.06-1.77-.6-.295-.294-.6-.47-1.003-.47-.118.353-.177.707-.236 1.12zm.472-3.476c.6.06 1.002.353 1.415.766s1.062.47 1.534.177c1.002-.6 1.77-.472 2.595.353.413.413 1.002.53 1.474.295.53-.295 1.003-.53 1.65-.354l.177-1.178c-.353-.118-.648-.06-1.002.177-.885.53-1.77.412-2.477-.354-.53-.53-1.12-.6-1.7-.236-.236.118-.47.236-.766.295-.65.118-1.24-.118-1.7-.6-.295-.295-.6-.472-1.002-.472l-.177 1.12zm-.708 5.185c.6.06 1.003.353 1.416.766s1.06.53 1.533.177c.885-.6 1.946-.413 2.595.353a1.27 1.27 0 0 0 1.474.295c.53-.295 1.003-.53 1.652-.354l.177-1.12c-.354-.118-.65-.118-1.003.118-.944.53-1.77.412-2.477-.354-.472-.53-1.062-.6-1.7-.236-.236.118-.472.236-.708.295-.708.118-1.298-.118-1.77-.648a1.23 1.23 0 0 0-.944-.471c-.118.412-.177.766-.236 1.178zm.472-3.476c.6.06 1.003.353 1.415.766.354.412 1.003.47 1.475.235l.354-.176c.766-.413 1.592-.236 2.24.47.472.47 1.06.648 1.592.353.472-.294 1.003-.47 1.593-.353l.176-1.12c-.353-.117-.648-.117-.943.118-.826.6-1.946.472-2.595-.353-.413-.472-1.062-.53-1.593-.236-.825.6-1.946.47-2.595-.354-.235-.294-.53-.412-.943-.412l-.177 1.06zM295.18 234.8c-.354.118-.6.118-.826.295-1.002.6-1.77.47-2.595-.354-.47-.47-1.06-.53-1.65-.235-.944.6-1.77.47-2.536-.354-.177-.177-.472-.294-.767-.47l-.354 1.237c.826.236.826.236 1.416.825.413.413 1.06.47 1.533.177.885-.6 1.946-.413 2.595.353a1.27 1.27 0 0 0 1.475.295c.53-.295 1.002-.47 1.65-.354.06-.53.06-.942.06-1.414zm-3.42-6.245l1.475.235c.177.06.295-.06.295-.235.06-.236.06-.53.118-.766 0-.295-.118-.472-.413-.53l-2.595-.353c-.295-.06-.472.118-.53.353s-.06.53-.118.766c-.06.177.06.295.236.354a57.97 57.97 0 0 1 1.533.177zm-2.9 25.925c-.176-.295-.648-.47-1.002-.353-.236.058-.236.176-.118.353.236.295.767.295 1.12 0zm5.436-14.553l-.236 1.768c0 .236-.117.413-.353.354s-.236-.236-.236-.413l.472-3.594c0-.177.117-.354.353-.354.236.06.236.236.236.413l-.236 1.826z"/><path opacity=".37" d="M292.527 252.714l-.472.942c-.236.354-.53.648-.767 1.002-.118.118-.294.177-.412 0-.118-.118-.118-.295 0-.412.47-.472.825-1.002 1.06-1.65.06-.118.236-.177.354-.177.06 0 .177.177.236.295zm2.005-18.914c-.06.06-.118.177-.236.177a.45.45 0 0 1-.295-.118c-.06-.06-.06-.118-.06-.236l-.767-1.886c0-.058-.118-.117-.06-.176 0-.118.06-.295.118-.295.118-.06.295 0 .354.06.472.707.767 1.532 1.003 2.357-.06 0-.06.06-.06.118z"/></g><g opacity=".37"><path opacity=".37" d="M56.56 265.853c.354 0 .767-.06 1.12-.06.6 0 1.18 0 1.7.236.236.06.472.235.708.353.236.177.413.413.472.707l.177.943c0 .06.06.177.118.236a1.26 1.26 0 0 1 .59.942l2.182 11.5c.06.412 0 .766-.236 1.12-.06.058-.06.176-.06.235.06.413 0 .766-.295 1.06-.354.47-.826.766-1.357 1-1.65.766-3.362 1.06-5.2.766-.354-.058-.708-.235-1.062-.353-.354-.177-.53-.47-.6-.825 0-.06-.06-.177-.118-.236a1.26 1.26 0 0 1-.59-.942l-.472-2.593v-.118c0-.177.06-.294.236-.353s.354.06.354.235c.06.118.06.295.06.413l.413 2.298c.06.294.177.47.413.59.413.236.826.295 1.238.353 1.946.177 3.834-.176 5.603-1.178.295-.177.53-.412.826-.648.177-.177.236-.413.177-.707l-2.005-10.31c0-.06 0-.118-.06-.177-.06.06-.06.06-.118.06l-1.18.825c-.177.118-.354.06-.472-.118-.06-.177 0-.354.177-.472.295-.176.65-.412.944-.648a.91.91 0 0 0 .354-.471c.118-.236.06-.412-.177-.59-.65.884-1.592 1.296-2.595 1.65-1.12.353-2.3.53-3.54.47-.708-.06-1.238-.177-1.828-.53-.118.235-.118.412.06.59a1.99 1.99 0 0 0 .708.353c.708.236 1.474.236 2.24.236.885-.06 1.7-.236 2.536-.47.177-.06.354-.06.472.06.118.176.06.412-.236.47-.65.177-1.297.354-1.946.412a7.61 7.61 0 0 1-2.831 0c-.295-.058-.6-.176-.885-.235 0 .06 0 .118.06.177l1.24 6.48c.06.294 0 .47-.236.53-.177.06-.354-.118-.413-.412l-1.474-7.6c-.06-.413 0-.707.236-1.06.06-.06.06-.176.06-.294l-.177-.884c-.118-.413 0-.707.236-1.06.413-.53.944-.825 1.474-1.06l1.415-.53c.06 0 .06-.06.118-.06l1.415-.294zm-.236 3.3c.06-.707.472-1.12 1.062-1.296s1.18-.118 1.7.354c.177-.118.354-.295.53-.413v-.06l-.708-.176c-1.357-.177-2.654.058-3.952.47-.236.06-.413 0-.472-.177s.06-.353.295-.412a9.31 9.31 0 0 1 2.477-.531c.885-.058 1.828-.058 2.654.295h.118c-.118-.118-.177-.236-.295-.295-.236-.117-.472-.235-.767-.294-.6-.177-1.18-.177-1.828-.118-1.18.118-2.3.354-3.362.943-.354.176-.708.412-.944.766-.06.118-.177.235-.06.412l.118-.118.65-.47c.177-.118.354-.06.413.118.118.177.06.294-.118.412-.06.06-.118.06-.177.118-.118.118-.236.177-.413.295 1.003.412 2.005.353 3.067.176zm-3.42.472c.06.118.118.236.236.294.236.118.472.236.708.295.767.177 1.592.177 2.36.06 1.062-.118 2.123-.412 3.008-1.002.295-.176.6-.353.767-.707.06-.118.06-.235.118-.353-2.123 1.59-4.54 2.003-7.195 1.414zm2.9 14.26c.295.235.6.294.885.353.708.118 1.415.118 2.123.06 1.062-.118 2.064-.353 2.95-.884.295-.176.6-.412.885-.648.06-.06.06-.118.118-.118-2.182 1.12-4.482 1.59-6.96 1.238zm2.654-15.32c-.53-.353-1.415-.06-1.474.472.53-.118 1.003-.295 1.474-.472z" fill="gray"/></g><g fill="#444"><path d="M116 172.436l12.376-21.408-2.624-1.53c-.7-.394-1.137-.918-1.093-1.704.043-.83.612-1.3 1.4-1.573l5.685-2.097c.437-.175.92-.568 1.137-.96l12.157-21.06c.57-1.005 1.27-1.398 2.406-1.398h22.302c1.05 0 1.75.393 2.274 1.3l9.62 16.7.48.787 2.537-1.442c.7-.437 1.4-.612 2.1-.087.7.48.787 1.18.656 2l-1.006 5.8c-.13.612-.044 1.136.306 1.704l13.906 23.985c.875 1.53.83 1.923-.437 3.2l-13.294 13.28c-.7.7-1.443 1.005-2.45 1.005-3.848-.043-7.697 0-11.545 0h-1.006v3.015c0 .786-.218 1.442-.962 1.8s-1.4.13-1.968-.393c-1.574-1.354-3.192-2.665-4.8-3.976-.306-.262-.787-.437-1.18-.437-2.8-.043-5.597 0-8.396-.043-1.443 0-2.318-1.442-1.53-2.5.306-.437 1.006-.742 1.53-.786 1.618-.087 3.192-.044 4.8-.044.044-.087.13-.13.175-.218-.175-.088-.394-.175-.525-.306l-4.6-3.845c-1.137-.96-1.094-1.966.043-2.927l5.16-4.325c-.438 0-.656-.044-.875-.044h-21.647c-.612 0-.918.22-1.224.7l-4.8 8.345c-.262.48-.175.7.13 1.136.92 1.18 2.012 1.616 3.5 1.485 1.53-.13 3.06-.043 4.592-.043 1.137 0 1.88.7 1.836 1.66 0 .96-.743 1.616-1.836 1.616-2.406 0-4.767.044-7.172-.043a2.27 2.27 0 0 1-1.443-.612l-14.082-14.024c-.218-.22-.393-.525-.612-.787v-.917zm42.638-37.093c-.175.22-.22.306-.306.393l-9.665 16.734c-.175.305-.22.786-.175 1.18.306 2 .7 4.02 1.05 6.03.13.787.043 1.442-.613 1.923-.7.524-1.4.393-2.1-.044-.83-.524-1.705-.96-2.624-1.485l-6 10.354c.175.044.263.044.35.044h24.62c.306 0 .612-.175.874-.35l4.8-3.976c.612-.524 1.268-.83 2.055-.48s1.006 1.048 1.006 1.835v2.927h6.997c-.044-.13-.088-.22-.13-.306l-8.1-14.024c-.174-.306-.524-.524-.874-.656l-5.773-2.14c-.743-.262-1.355-.7-1.4-1.53-.088-.874.437-1.355 1.137-1.748.875-.48 1.705-1.005 2.536-1.486l-7.696-13.194zm-15.306 8.083l-13.032 4.806c.22.13.35.218.437.305 1.837 1.136 1.968 1.617.875 3.54l-11.5 19.88c-.306.524-.263.83.175 1.267l6.865 6.86c.35.35.656.7 1.05 1.136l3.455-5.985 10.276-17.826c.744-1.267 1.53-1.485 2.8-.786.263.13.48.262.92.48l-2.318-13.675zm37.915 12.757l2.36-13.675c-.262.13-.394.22-.525.262-1.836 1.005-2.36.874-3.454-1.004l-9.84-17.04c-.306-.525-.612-.743-1.224-.743h-11.808c-.218 0-.48.044-.787.044l.437.786 6.822 11.796 6.56 11.36c.744 1.3.525 2.053-.743 2.84-.263.13-.525.306-.875.525l13.076 4.85zm14.956 17.738H170.5c-1.268 0-1.88-.612-1.924-1.88v-1.223l-10.714 8.913 10.67 8.87c0-.35.044-.48.044-.656.043-2 .437-2.402 2.45-2.402h12.638c.612 0 1.05-.175 1.443-.612 1.224-1.267 2.45-2.5 3.717-3.714l7.4-7.296zm-48.717-26.17c.13-.175.22-.218.263-.306l8.658-15.03c.132-.218.088-.7-.043-.96l-2.537-4.413c-.568-.96-.918-2.315-1.793-2.796s-2.274-.13-3.4-.218c-.612-.044-.918.174-1.224.7l-9.534 16.514c-.13.22-.218.394-.393.787l6.297-2.316c1.443-.524 2.318 0 2.58 1.486l1.137 6.553zM196.3 170.6l-10.845-18.787c-.088.437-.175.656-.22.874l-1.006 5.8c-.218 1.3-1.18 1.878-2.45 1.44-.262-.087-.524-.174-.787-.305l-5.597-2.054c.043.175.087.262.087.35l7.085 12.2c.13.262.612.437.918.437h11.37c.48.044.875.044 1.443.044zm-49.382 14.942c.918 0 1.705.743 1.66 1.66 0 .873-.743 1.616-1.618 1.66-.918 0-1.705-.787-1.66-1.66 0-.918.743-1.617 1.618-1.66z"/></g><g fill="#44b31f"><path d="M259.204 153.96H282.5c-.708-23.038-7.313-43.896-19.462-63.4l7.903-5.126c13.564 20.917 20.406 43.602 21.172 68.525H316l-28.604 47.196-28.2-47.196zm16.455 8.956l11.677 19.503 11.678-19.503H275.66zM162.895 314.522l-47.36-28.695 47.24-28.105v23.274c22.647-.707 42.994-7.6 62.044-19.503l5.13 7.836c-20.347 13.376-42.7 19.975-67.057 21.035v24.158zm-9.672-40.243l-19.345 11.607 19.345 11.55V274.28zM25.242 161.386H1.238l28.604-47.137 28.073 47.02h-23.12c.826 22.86 7.5 43.425 19.404 62.633l-7.844 5.067C33.203 208.347 26.42 185.9 25.24 161.387zm-7.018-9.546H41.46l-11.62-19.326-11.618 19.326zm136.65-127.86V0l47.18 28.106-47.063 28.46V33.35c-23.06.412-43.762 7.012-63.165 18.973a148.38 148.38 0 0 1-2.536-3.594c-.826-1.178-1.592-2.357-2.536-3.77 20.878-13.14 43.525-19.856 68.12-20.976zm9.495 16.262l19.462-11.666-19.462-11.548v23.215z"/></g><g fill="#444"><path d="M250.653 60.218l-7.077 7.07-6.547-5.95 6.193-7.6 7.43 6.48zM62.398 78.66l-6.96-6 6.546-7.483 6.96 6.48-6.547 7.012zm11.56 182.126l-7.5-6.6 6.605-7.07 6.546 6.07-5.662 7.6zm-5.13-202.513l7.5-6.128 5.72 7.6-6.96 5.597-6.252-7.07zm187.312 22.45l-5.603-7.012 7.077-6.128 6.134 7.424-7.608 5.715zM60.982 233.74l5.603 6.953-7.077 6.186-6.134-7.483 7.608-5.656zM235.2 254.717l6.96-5.598 6.134 7.012-7.5 6.07-5.603-7.483zm20.525-5.95l-7.078-6.6 6.075-6.54 7.077 6.07-6.074 7.07zm9.082-27.046l7.962 4.714-4.6 7-7.55-5.185 4.187-6.54zm-171.74 41.246l-4.6 7.778-6.016-4.125 5.072-7.365 5.544 3.712zm137.71-218.48l4.542 3.24-5.544 7.483-4.13-2.7 5.13-8.013zM56.56 86.202l-2.3 3.594-7.903-5.067 2.654-3.712 7.55 5.185z"/></g><g fill="#b4e1a5"><path d="M224.526 297.553l.177.353c.413.884.53 1.768.295 2.77L222 311.458c-.118.47-.354.943-.65 1.296-.825 1.002-2.123 1.002-3.125.06-1.24-1.237-1.77-2.77-1.888-4.478-.06-.648.06-1.355.236-2.003l3.067-11.077c.06-.118.06-.236.118-.354h-.295l-22.883 4.066c-.236.06-.295.118-.354.353l-3.303 12.02c-.943 3.83 2.124 7.012 5.84 6.364l19-3.36c.6-.118.944.06 1.002.472s-.176.648-.766.707l-19 3.358c-3.833.648-8.08-2.298-7.372-7.424.236-1.414.708-2.77 1.12-4.183l2.418-8.78c.118-.412.353-.648.766-.707l24.3-4.3c.236-.06.472 0 .708 0l.236.236c0 .235 0 .47-.06.707l-3.362 11.96c-.413 1.532-.177 3.005.53 4.42.236.53.6 1.002 1.12 1.296.413.236.767.177 1.003-.235.177-.236.295-.472.354-.708l3.067-11.018c.176-.707 0-1.414-.354-2.003-.118-.118-.295-.236-.413-.354-.06.177-.177.295-.236.472l-2.595 9.25c-.177.65-.354 1.356-.6 2.004-.118.353-.413.53-.767.412s-.47-.412-.412-.766c0-.118.06-.236.118-.353l3.007-10.9c.06-.177.118-.412.236-.6.413-.707 1.12-.943 1.888-.53a.45.45 0 0 0 .235.118c.236.235.413.412.6.648zm-27.07 12.077c.118 0 .236 0 .294-.058l4.955-.884c.177-.06.294-.118.353-.295.06-.294.118-.6.236-.884.118-.353.413-.53.708-.47s.53.412.413.766l-.413 1.473c-.06.177-.295.412-.53.47l-6.723 1.238c-.53.117-.885-.295-.708-.825l1.534-5.54c.06-.294.294-.47.6-.53l6.606-1.18c.6-.117.884.236.766.825l-.353 1.356c-.118.412-.413.6-.767.47s-.472-.413-.413-.766c.06-.177.06-.354.118-.53-.177.06-.354.06-.53.06l-4.718.824c-.118 0-.295.118-.295.236l-1.12 4.242zm16.1.07c.295.354.118.884-.413 1.002l-2.654.47-13.918 2.534c-.6.118-.885 0-.944-.412s.177-.648.767-.766l16.395-3.005c.295-.06.53-.118.767.176zm-15.097-8.2c.236-.06.354-.118.53-.177l15.806-2.828c.413-.06.767.117.826.47s-.177.648-.6.707l-15.806 2.77c-.412.06-.707 0-.766-.353-.118-.118 0-.354 0-.6zm14.802 5.42c.413.413.236.943-.118 1.06-.177.06-.354.06-.53.118l-6.3 1.178c-.472.06-.767-.06-.826-.47a.57.57 0 0 1 .531-.707l3.243-.6 3.42-.6c.236-.06.472 0 .6 0zm.708-2.768c.413.47.236 1.002-.295 1.12a11.09 11.09 0 0 1-1.356.235l-5.308.943h-.177c-.354 0-.6-.177-.65-.47s.118-.6.472-.707l1.887-.354 4.777-.884c.236.06.53.118.65.118zm.707-2.77c.413.413.236.943-.177 1.06l-.944.177-5.543 1.002h-.177c-.472.058-.767-.118-.826-.472s.177-.648.6-.707l1.946-.353 4.54-.825c.177 0 .413.117.6.117z"/></g><g fill="#daf0d2"><path d="M267.285 55.916h-.177c-.708.236-1.416.177-2.123-.118-1.534-.707-2.772-1.768-3.657-3.182l-9.8-15.732a10.88 10.88 0 0 1-1.534-7.542l.177-1.532v-.236c-.472 0-.766-.236-1.002-.648-.118-.295-.354-.53-.472-.766-.295-.53-.177-1.237.354-1.6l2.83-1.768c.53-.354 1.238-.177 1.592.353.177.236.295.53.472.766.295.354.413.766.177 1.237l1.65.6c2.654.884 4.66 2.475 6.134 4.832l9.672 15.496a8.85 8.85 0 0 1 1.297 3.535c.177 1.237.06 2.416-.884 3.358-.236.118-.413.295-.65.412-.472.118-.885.06-1.297-.236-.413.648-.944 1.002-1.652 1.002.118.53-.06.943-.354 1.296l-.766.47zm-6.016-24.983c-.472.236-.708.47-.826.884-.295 1.237-1.533 1.944-2.713 1.7-.766-.118-1.474.295-1.65 1.06-.354 1.18-1.474 1.944-2.713 1.7-.413-.06-.826.06-1.18.353l4.07 6.48c.6-.412 1.238-.47 1.887-.412.767.118 1.357-.354 1.652-1.12.412-1.178 1.356-1.768 2.595-1.6.884.118 1.533-.295 1.828-1.12.118-.295.295-.6.472-.884.177-.236.412-.354.648-.53l-4.07-6.54zm8.965 14.436c-.413.236-.708.413-.826.884-.295 1.237-1.475 1.944-2.713 1.7-.767-.118-1.475.295-1.65 1.06-.354 1.178-1.475 1.944-2.713 1.7-.413-.06-.826 0-1.18.354l.944 1.532c.825 1.178 1.887 2.062 3.184 2.65a2 2 0 0 0 1.829 0c.6-.295.648-.6.413-1.178-.177-.353-.177-.707-.06-1.06.235-.648.766-.943 1.415-1.12.6-.118 1.003.118 1.357.6.294.413.648.413 1.06.177.65-.413.944-1.002.944-1.768.06-2.12-.826-3.9-2.005-5.54zm-19.286-11.43c.354-.06.6-.177.826-.177.295 0 .53 0 .825.06.708.06 1.357-.354 1.593-1.06.472-1.296 1.297-1.827 2.713-1.65.707.06 1.415-.295 1.65-.943.177-.53.413-1.002.885-1.355l-.177-.177c-1.003-.884-2.182-1.532-3.48-2.003l-2.005-.766c-.118-.06-.354-.06-.472.06a43.96 43.96 0 0 0-2.182 1.355.5.5 0 0 0-.236.412c-.118.707-.177 1.414-.236 2.12a17.86 17.86 0 0 0 0 2.534c0 .47.177 1.06.295 1.6zm8.67 14.67c.53-.354 1.12-.53 1.77-.412.885.118 1.533-.295 1.77-1.12.413-1.178 1.357-1.768 2.595-1.6.885.118 1.534-.295 1.83-1.178.176-.53.47-.943.943-1.237.06-.06.118-.118.177-.118-.236-.412-.53-.825-.767-1.178-.47.236-.648.47-.825.943-.413 1.178-1.357 1.768-2.595 1.65-.885-.118-1.534.295-1.83 1.12l-.353.766c-.53.707-1.298 1.002-2.124.884-.47-.06-.943 0-1.297.354a6.16 6.16 0 0 1 .708 1.12zm-2.242-3.653c.6-.413 1.24-.47 1.888-.413.707.118 1.356-.353 1.65-1.06.472-1.355 1.298-1.827 2.713-1.7.708.06 1.357-.236 1.592-.884.236-.707.6-1.296 1.24-1.65-.295-.412-.53-.825-.767-1.237-.413.177-.648.47-.825.943-.413 1.237-1.298 1.768-2.595 1.65-.885-.118-1.475.295-1.83 1.12-.118.295-.236.6-.472.884-.53.648-1.238.884-2.064.766-.472-.06-.943 0-1.297.353l.766 1.237zm3.362 5.42c.6-.412 1.24-.47 1.887-.412.708.118 1.416-.295 1.593-1.06.354-1.237 1.474-1.944 2.713-1.7.708.118 1.356-.236 1.592-.884.236-.707.6-1.296 1.24-1.65-.236-.413-.53-.825-.767-1.178-.413.118-.708.412-.885.943-.413 1.237-1.297 1.827-2.595 1.65-.884-.118-1.474.295-1.77 1.12-.118.295-.236.6-.413.825-.53.648-1.297.943-2.123.766-.472-.06-.885 0-1.24.353l.767 1.237zm-2.24-3.653c.6-.412 1.24-.47 1.946-.412.708.118 1.298-.353 1.593-.943l.177-.47c.412-.943 1.356-1.473 2.477-1.296.825.118 1.474-.236 1.77-.943.236-.648.6-1.237 1.238-1.6-.235-.412-.53-.825-.766-1.178-.413.177-.708.412-.826.884-.295 1.178-1.474 1.944-2.713 1.7-.708-.118-1.474.295-1.65 1.002-.354 1.178-1.475 1.944-2.713 1.7-.413-.06-.826.06-1.18.353.118.413.413.766.65 1.178zm1.415-17.617c-.235.354-.47.6-.6.943-.472 1.296-1.298 1.827-2.713 1.65-.767-.06-1.416.295-1.7 1.06-.47 1.296-1.297 1.768-2.654 1.65-.353-.06-.648.06-1.12.118l.65 1.414c.943-.412.943-.412 2.005-.353.708.06 1.356-.354 1.592-1.06.354-1.237 1.534-1.886 2.713-1.7.708.118 1.357-.236 1.593-.884s.6-1.237 1.238-1.65a10.41 10.41 0 0 1-1.003-1.178zm-8.08-3.182l1.533-.943c.236-.118.236-.236.118-.47l-.53-.825c-.236-.295-.472-.354-.767-.177l-2.712 1.65c-.295.177-.354.47-.177.766s.353.53.47.825c.118.236.295.236.472.118.53-.353 1.062-.648 1.593-.943zm17.516 26.7c-.413-.118-1.003.06-1.24.47-.177.236-.118.354.177.413.53.06 1.003-.353 1.062-.884zm-6.25-17.968l1.18 1.886c.118.236.236.47-.06.6-.236.177-.413 0-.53-.236l-2.36-3.83c-.118-.236-.236-.412.06-.6.236-.177.413 0 .53.236l1.18 1.944zm8.315 13.434l.295 1.237c.06.53.06 1.002.06 1.532 0 .236-.118.354-.354.354s-.354-.177-.295-.413c.06-.825-.06-1.6-.295-2.357-.06-.118.06-.354.177-.47.06-.06.295.06.413.118zm-12.916-19.385c0 .06 0 .236-.06.295s-.236.118-.354.118c-.06 0-.177-.118-.236-.118l-2.24-1.178c-.06-.06-.177-.06-.236-.118-.06-.118-.177-.295-.118-.413s.295-.236.354-.236c1.003.354 1.947.825 2.772 1.473.06.06.06.118.118.177zM88.642 13.788c-.118.177-.236.413-.413.53l-2.005 2.062a.38.38 0 0 0-.118.47l1.475 4.83c.118.354.06.6-.177.825l-7.726 7.837c-.236.236-.413.295-.767.236L68.177 28.28c-.295-.06-.472-.236-.6-.53l-1.474-4.9c-.06-.177-.118-.236-.295-.295l-2.9-.6c-.65-.118-.826-.412-.472-1.002l1.7-3.123a.81.81 0 0 0 .177-.236 11.19 11.19 0 0 0-1.18-.59l-2.36-1.296c-.472-.236-.53-.6-.177-1.002l2.83-2.828 4.895-4.95c.354-.354.53-.412.944-.118l3.126 1.7c.06.06.177.06.236.118.06-.118.118-.177.177-.236l1.7-3.182c.236-.412.354-.47.826-.354l2.9.648c.177.06.354.118.472.236.177.177.118.412 0 .6-.118.236-.354.236-.6.236l-2.477-.53c-.236-.06-.354 0-.472.236L73.62 9.12c.118.06.236.06.295.06l9.377 2.003c.177.06.295 0 .354-.177l1.415-2.65c.06-.06.06-.118.118-.236l-1.475-.295-1.592-.354c-.354-.06-.6-.354-.53-.648s.354-.47.708-.412l3.657.766c.177.06.295.177.472.236.06.118.06.177.118.295l-.65 1.237-1.415 2.652c.118.06.236.06.295.118l3.126 1.7c.118.06.295.177.413.295.236-.118.236-.06.295.06zM78.44 29.284a19.05 19.05 0 0 1-.413-1.473l-1.12-3.712c-.118-.295 0-.6.236-.707.295-.177.65 0 .767.413l1.474 4.83c0 .118.06.177.06.295.06-.06.118-.118.177-.118l6.78-6.892c.118-.118.118-.236.06-.354l-1.18-3.948c0-.06-.06-.118-.06-.236l-.177.177-4.364 4.42c-.354.354-.472.354-.944.118l-3.185-1.7c-.06-.06-.177-.06-.236-.118l-1.828 3.417c-.236.413-.354.47-.826.354l-6.075-1.296c-.06 0-.177 0-.236-.06a.53.53 0 0 1 .059.295l1.12 3.83c.06.236.177.295.354.354L74.9 28.46c1.18.354 2.3.6 3.54.825zM66.113 16.9c.118 0 .177.06.236.06l9.318 2.003c.177.06.295 0 .413-.118l5.603-5.657 1.24-1.237c-.118 0-.177-.06-.236-.06l-9.32-2c-.177-.06-.295 0-.413.118l-4.836 4.9-2.005 2.003zm9.14 3.064l-9.908-2.12-1.65 3.064 1.474.295 8.14 1.768c.236.06.354 0 .413-.177a7.46 7.46 0 0 1 .65-1.178l.885-1.65zm1.7-.47c.118.06.177.118.236.118l2.595 1.414c.177.118.295.118.472-.06l5.957-6.07.944-.943-3.067-1.65-7.136 7.188zM72.07 9.37l-2.9-1.532c-.177-.118-.236-.06-.413.06l-6.84 6.894c-.06.06-.06.118-.118.118l3.067 1.65c2.484-2.36 4.834-4.776 7.204-7.2zm7.844-2.948c-.06-.295.118-.6.354-.648.295-.06.6.118.65.354.06.295-.118.6-.413.648-.236.118-.53-.06-.6-.354zm-2.537 15.615a.47.47 0 0 1-.354.648c-.295.06-.6-.06-.65-.354a.47.47 0 0 1 .354-.648c.236-.06.53.06.65.354z"/></g><path d="M67.942 105.47l1.474.47c.767.295 1.474.65 2.123 1.12.295.236.53.53.767.825.236.353.354.766.236 1.178-.118.472-.177.884-.236 1.355 0 .118 0 .236.06.354.295.47.413.943.295 1.532l-2.95 16.027c-.118.59-.354 1-.826 1.296-.06.06-.177.177-.177.294-.06.6-.413.943-.885 1.238-.708.412-1.474.53-2.3.59-2.536.177-4.954-.295-7.136-1.59-.472-.236-.826-.648-1.18-1.002s-.472-.824-.354-1.355c0-.118 0-.235-.06-.353-.295-.472-.413-.943-.295-1.532l.65-3.594c0-.06 0-.118.06-.177.06-.236.295-.354.472-.354.236.06.413.236.354.472 0 .176-.06.353-.118.59l-.6 3.24c-.06.353 0 .707.236.942.413.472.885.825 1.474 1.12 2.477 1.237 5.072 1.71 7.844 1.296.472-.06.944-.295 1.356-.47.354-.118.53-.413.6-.825l2.654-14.436c0-.06.06-.177.06-.295-.06 0-.118.06-.177.06l-1.887.472c-.295.06-.53-.118-.53-.354s.118-.412.413-.53c.53-.118 1.062-.177 1.533-.354.295-.06.53-.294.767-.47.236-.236.236-.53.06-.825-1.297.825-2.713.884-4.187.825-1.65-.06-3.303-.47-4.777-1.178a4.85 4.85 0 0 1-2.123-1.65.58.58 0 0 0-.236.825c.177.294.413.59.708.825.826.648 1.77 1.06 2.772 1.414 1.18.353 2.36.59 3.598.648.236 0 .472.06.53.353s-.177.6-.53.53l-2.713-.413c-1.297-.294-2.536-.707-3.657-1.473-.354-.235-.65-.53-1.062-.766 0 .06-.06.177-.06.236l-1.65 9.015c-.06.412-.295.648-.6.59s-.413-.295-.295-.707L59.4 109.83c.118-.53.354-.942.826-1.296.118-.06.177-.236.236-.354.118-.412.177-.824.236-1.237.06-.53.354-.943.826-1.237.767-.472 1.592-.59 2.477-.648l2.123.06h.177l1.65.353zm-2.005 4.125c.413-.884 1.18-1.18 2.064-1.12s1.592.47 2.005 1.296c.295-.117.6-.176.885-.235v-.06c-.295-.177-.53-.413-.826-.59-1.65-.943-3.48-1.297-5.367-1.356-.354 0-.53-.176-.53-.47s.236-.412.6-.412c1.18 0 2.36.235 3.54.53 1.24.353 2.36.825 3.303 1.71 0 0 .06 0 .177.058-.06-.235-.118-.412-.177-.53-.236-.294-.53-.59-.826-.766-.708-.53-1.475-.825-2.3-1.06-1.592-.472-3.185-.707-4.836-.472-.6.06-1.12.177-1.65.53-.177.117-.354.235-.295.53.06 0 .118-.06.177-.06.354-.118.708-.177 1.062-.295.236-.06.472.118.53.354s-.118.47-.354.53c-.118 0-.236.06-.354.06l-.708.177c1.18.884 2.536 1.296 3.892 1.65zm-4.66-1.12c.06.177.06.354.177.53.236.295.472.6.767.766.944.648 1.946 1.002 3.067 1.297 1.474.353 2.95.53 4.423.235.472-.06.944-.176 1.356-.53.118-.118.236-.295.354-.412-3.657.883-6.96.235-10.144-1.886zm-3.42 19.974c.236.413.6.65.944.884.826.53 1.77.884 2.713 1.12 1.416.353 2.83.53 4.305.353.53-.06 1.003-.294 1.474-.412.06 0 .118-.118.177-.118-3.362.47-6.546-.118-9.613-1.827zm11.206-18.56c-.53-.707-1.828-.766-2.182-.118.708.06 1.415.118 2.182.118z" fill="#b4e1a5"/><g fill="#daf0d2"><path d="M4.423 190.02c-.236-.825-.708-1.178-1.474-1.237-.413 0-.826-.06-1.18-.118s-.53-.354-.413-.6c.06-.295.295-.413.65-.354l1.003.118c1.062 0 1.77.53 2.24 1.473.06.06.06.177.118.236.65-.177.767-.118 1.062.47l.354.825c1.356-.6 2.654-.177 3.95 0l5.898.884c.65.118.708.177.708.825.06 1.06.53 1.826 1.533 2.298l2.477.942c.472.177.6.354.413.825l-9.967 28.34c-.177.472-.354.6-.826.413l-1.592-.6c-.413-.177-.6-.354-.413-.766.177-.354 0-.53-.236-.707-4.07-2.83-6.84-6.482-8.14-11.136-.885-3.123-.767-6.246.295-9.37l3.244-9.192c.06-.117.06-.235.118-.294.413-.53.295-1.002-.06-1.473l-.354-.707c-.236-.472-.177-.707.295-.943.118-.06.177-.118.295-.177zm4.836 32.584c.06-.118.118-.236.118-.295l9.2-26.043c.118-.236.06-.354-.236-.472-1.18-.6-1.887-1.473-2.064-2.77 0-.236-.177-.294-.354-.294l-6.96-1.06c-1.828-.295-3.303.6-3.892 2.298l-3.244 9.192c-.944 2.65-1.062 5.36-.413 8.13.826 3.417 2.536 6.304 4.954 8.838a22.9 22.9 0 0 0 2.9 2.475zm1.533 1.708l9.73-27.634a5.79 5.79 0 0 0-.944-.294L9.85 224.02c.354.06.65.177.944.294zm-5.2-33.644c-.236.118-.413.177-.53.236a7.34 7.34 0 0 0 .295.825c.236-.177.413-.295.53-.47-.177-.177-.236-.354-.295-.6zm5.554 12.375l-2.713 7.66c-.236.648-.53.766-1.062.294-2.477-2.062-3.54-4.596-3.008-7.836.06-.354.177-.707.295-1.12l2.772-7.836c.236-.707.472-.884 1.24-.766l4.187.47c.177 0 .295.06.472.118.53.236.708.648.53 1.237l-2.713 7.778zm.177-3.476l1.592-4.537c-.118 0-.177-.06-.295-.06l-3.834-.413c-.295-.06-.354.06-.472.295l-2.713 7.66a6.64 6.64 0 0 0 .177 5.008 6.77 6.77 0 0 0 1.828 2.475l2.123-6.07-1.592-.6c-.472-.176-.6-.353-.413-.824l1.062-3.064c.177-.472.354-.53.826-.413.6.118 1.12.295 1.7.53zm-1.592.47l-.826 2.357c.413.177.826.294 1.297.47l.826-2.357-1.297-.47zm3.067 7.955l-1.297 3.77c-.06.118-.06.295-.177.354-.177.118-.413.176-.53.176-.118-.058-.236-.294-.295-.47-.06-.118.06-.236.118-.353l2.654-7.542c.06-.118.06-.236.118-.354.118-.236.295-.295.6-.236.236.06.354.295.354.53 0 .118-.06.235-.118.353L12.81 208z"/></g><g opacity=".37" fill="gray"><path opacity=".37" d="M315.764 98.28l-.295.47-1.534 1.65c-.118.118-.118.236-.06.353l1.24 3.77c.06.236.06.472-.118.648l-6.016 6.305c-.177.177-.354.236-.6.177l-8.6-1.65c-.236-.06-.413-.177-.472-.412l-1.24-3.9a.46.46 0 0 0-.235-.236l-2.3-.412c-.53-.118-.648-.354-.412-.825l1.297-2.534c.06-.06.118-.118.118-.177l-.944-.47-1.887-1.002c-.413-.177-.413-.47-.118-.766l2.182-2.298 3.775-4.007c.295-.295.413-.295.767-.118l2.536 1.296c.06.06.118.06.176.118.06-.06.06-.118.118-.177l1.298-2.534c.177-.353.295-.412.65-.295l2.3.47c.118 0 .295.118.354.177.118.118.118.295 0 .47s-.295.236-.472.177l-1.946-.412c-.177-.06-.295 0-.354.177-.354.766-.767 1.473-1.18 2.24.118 0 .177.06.236.06l7.5 1.414c.118 0 .236 0 .295-.118l1.062-2.12c0-.06.06-.118.06-.177-.413-.06-.767-.177-1.18-.236l-1.297-.236c-.295-.06-.472-.236-.413-.53.06-.236.295-.353.6-.295l2.9.6c.118 0 .236.118.413.177 0 .06.06.177.06.236l-.472 1.002-1.12 2.12c.118 0 .177.06.236.06l2.536 1.296c.118.06.236.118.354.236.236.06.236.118.236.236zm-7.844 12.5l-.354-1.178-.944-2.888c-.06-.235 0-.47.177-.6.236-.118.53 0 .6.295l1.238 3.83c0 .06.06.118.06.235l.118-.117 5.25-5.598c.118-.118.06-.177.06-.295l-1.002-3.122c0-.06-.06-.118-.06-.177l-.177.177-3.362 3.594c-.236.294-.413.294-.708.118l-2.536-1.297c-.06-.06-.118-.06-.236-.118l-1.415 2.77c-.177.353-.295.412-.65.294l-4.836-.942h-.177c.06.118.06.176.06.235l.944 3.005c.06.177.118.236.295.236l4.836.943 2.83.6zm-9.968-9.663c.06 0 .118.06.236.06l7.432 1.414c.176 0 .235 0 .353-.118l4.365-4.596c.295-.353.648-.648.943-1.002-.06 0-.118-.06-.177-.06l-7.43-1.414c-.177 0-.236 0-.354.118l-3.774 4.007-1.593 1.6zm7.314 2.298l-7.903-1.532-1.298 2.475 1.18.235 6.487 1.238c.177.06.236 0 .354-.177l.472-.943c.295-.412.472-.825.708-1.296zm1.356-.413c.06.06.118.06.177.118l2.064 1.06c.177.06.236.06.354-.06l4.66-4.9.708-.766-2.477-1.296-5.485 5.833zm-4.07-8.013l-2.3-1.178c-.118-.06-.177-.06-.295.06l-5.308 5.598c-.06.06-.06.06-.06.118l2.477 1.237 5.485-5.833zm6.193-2.414c-.058-.236.06-.47.295-.53s.472.06.53.295-.06.47-.295.53c-.295.06-.472-.06-.53-.295zm-1.77 12.433c.06.235-.06.47-.295.53s-.472-.06-.53-.236c-.06-.235.06-.47.236-.53.295-.118.53 0 .6.236z"/></g></g><defs><clipPath id="A"><path fill="#fff" d="M0 0h316v319H0z"/></clipPath></defs></svg>